# Blender 4.5.1 LTS
# www.blender.org
mtllib Rat_Tail10.mtl
o Rat_Tail
v 0.014653 0.014216 -0.009424
v 0.014847 -0.013371 -0.009424
v 0.014653 0.014216 0.009409
v 0.014847 -0.013371 0.009409
v -0.014663 -0.013232 -0.008733
v -0.014837 0.012387 -0.008733
v -0.014663 -0.013232 0.008747
v -0.014837 0.012387 0.008747
vn 1.0000 0.0070 -0.0000
vn -0.0234 -0.0002 -0.9997
vn -0.0047 -1.0000 -0.0000
vn -0.0619 0.9981 -0.0000
vn -0.0224 -0.0002 0.9997
vt 0.000000 0.000000
s 0
usemtl Rat_pink
f 1/1/1 3/1/1 4/1/1 2/1/1
f 1/1/2 2/1/2 5/1/2 6/1/2
f 2/1/3 4/1/3 7/1/3 5/1/3
f 6/1/4 8/1/4 3/1/4 1/1/4
f 3/1/5 8/1/5 7/1/5 4/1/5
