# Blender 4.5.1 LTS
# www.blender.org
mtllib Rat_Tail1.mtl
o Rat_Tail.001
v -0.020807 0.002794 -0.002247
v -0.020807 -0.003986 -0.002247
v -0.020807 0.002794 0.002268
v -0.020807 -0.003986 0.002268
v 0.012124 -0.004140 -0.003019
v 0.008702 -0.004412 -0.003132
v 0.008683 0.004910 -0.003132
v 0.012105 0.004834 -0.003019
v 0.008702 -0.004412 0.003123
v 0.012124 -0.004140 0.003007
v 0.012105 0.004834 0.003007
v 0.008683 0.004910 0.003123
vn -1.0000 -0.0000 -0.0000
vn 0.0793 -0.9969 -0.0000
vn 0.0222 0.9998 -0.0000
vn 0.0340 0.0001 0.9994
vn 0.0331 0.0001 -0.9995
vn -0.0145 -0.9999 -0.0000
vn -0.0300 -0.0000 -0.9996
vn -0.0716 0.9974 -0.0000
vn -0.0290 -0.0000 0.9996
vt 0.000000 0.000000
s 0
usemtl Rat_pink
f 2/1/1 4/1/1 3/1/1 1/1/1
f 6/1/2 5/1/2 10/1/2 9/1/2
f 8/1/3 7/1/3 12/1/3 11/1/3
f 9/1/4 10/1/4 11/1/4 12/1/4
f 7/1/5 8/1/5 5/1/5 6/1/5
f 6/1/6 9/1/6 4/1/6 2/1/6
f 7/1/7 6/1/7 2/1/7 1/1/7
f 1/1/8 3/1/8 12/1/8 7/1/8
f 12/1/9 3/1/9 4/1/9 9/1/9
