# Blender 4.5.1 LTS
# www.blender.org
mtllib Rat_Tail6.mtl
o Rat_Tail.006
v 0.011603 -0.009358 -0.006598
v 0.008180 -0.009973 -0.006947
v -0.019618 -0.009212 -0.005867
v -0.019715 0.008085 -0.005867
v 0.008065 0.010438 -0.006947
v 0.011486 0.010020 -0.006598
v 0.008180 -0.009973 0.006939
v 0.011603 -0.009358 0.006586
v -0.019618 -0.009212 0.005886
v -0.019715 0.008085 0.005886
v 0.011486 0.010020 0.006586
v 0.008065 0.010438 0.006939
vn 0.1768 -0.9842 -0.0000
vn 0.1215 0.9926 -0.0000
vn 0.1024 0.0006 0.9947
vn 0.1015 0.0006 -0.9948
vn -0.0274 -0.9996 -0.0000
vn -0.0388 -0.0002 -0.9992
vn -0.0844 0.9964 -0.0000
vn -0.0379 -0.0002 0.9993
vt 0.000000 0.000000
s 0
usemtl Rat_pink
f 2/1/1 1/1/1 8/1/1 7/1/1
f 6/1/2 5/1/2 12/1/2 11/1/2
f 7/1/3 8/1/3 11/1/3 12/1/3
f 5/1/4 6/1/4 1/1/4 2/1/4
f 2/1/5 7/1/5 9/1/5 3/1/5
f 5/1/6 2/1/6 3/1/6 4/1/6
f 4/1/7 10/1/7 12/1/7 5/1/7
f 12/1/8 10/1/8 9/1/8 7/1/8
