# Blender 4.5.1 LTS
# www.blender.org
mtllib Rat_Case.mtl
o Rat_Case
v -0.006753 -0.015068 0.047751
v -0.006753 0.018337 0.047751
v 0.067544 -0.015068 0.047751
v 0.067544 0.018337 0.047751
v 0.063917 -0.000273 0.022982
v 0.063917 0.003139 0.022982
v 0.063917 -0.000273 0.013058
v 0.063917 0.003139 0.013058
v 0.075861 0.003139 0.000000
v 0.075861 -0.000273 0.000000
v 0.082206 -0.000273 0.000000
v 0.082206 0.003139 0.000000
v -0.006753 -0.015068 0.000000
v -0.006753 0.018337 0.000000
v 0.067544 -0.015068 0.000000
v 0.067544 0.018337 0.000000
v 0.072090 0.003139 0.012402
v 0.072090 -0.000273 0.012402
v 0.077053 -0.000273 0.017364
v 0.077053 0.003139 0.017364
v 0.063917 -0.001681 0.018020
v 0.063917 0.004547 0.018020
v 0.079033 -0.001681 0.000000
v 0.079033 0.004547 0.000000
v 0.074572 0.004547 0.014883
v 0.074572 -0.001681 0.014883
v 0.066265 0.005114 0.035202
v 0.066265 0.005114 0.031791
v 0.066265 -0.004810 0.035202
v 0.066265 -0.004810 0.031791
v 0.066265 0.000152 0.036611
v 0.066265 0.000152 0.030382
v 0.071602 -0.004810 0.031791
v 0.071602 -0.004810 0.035202
v 0.071602 0.000152 0.036611
v 0.071602 0.000152 0.030382
v 0.071602 0.005114 0.031791
v 0.071602 0.005114 0.035202
v 0.029480 0.009806 0.045609
v 0.035400 0.003698 0.046990
v 0.015554 -0.003037 0.048512
v 0.021474 -0.009144 0.049892
v 0.036130 0.010595 0.045609
v 0.043215 0.005889 0.046990
v 0.025261 -0.004921 0.048512
v 0.032346 -0.009626 0.049892
v 0.046754 0.014404 0.041885
v 0.055343 0.014516 0.042575
v 0.046420 -0.003405 0.048955
v 0.055008 -0.003293 0.049645
v 0.004038 0.011915 0.042390
v 0.012562 0.011536 0.043590
v 0.002315 -0.006005 0.048960
v 0.010839 -0.006385 0.050160
v -0.006753 -0.015068 -0.047751
v -0.006753 0.018337 -0.047751
v 0.067544 -0.015068 -0.047751
v 0.067544 0.018337 -0.047751
v 0.063917 -0.000273 -0.022982
v 0.063917 0.003139 -0.022982
v 0.063917 -0.000273 -0.013058
v 0.063917 0.003139 -0.013058
v 0.072090 0.003139 -0.012402
v 0.072090 -0.000273 -0.012402
v 0.077053 -0.000273 -0.017364
v 0.077053 0.003139 -0.017364
v 0.063917 -0.001681 -0.018020
v 0.063917 0.004547 -0.018020
v 0.074572 0.004547 -0.014883
v 0.074572 -0.001681 -0.014883
v 0.066265 0.005114 -0.035202
v 0.066265 0.005114 -0.031791
v 0.066265 -0.004810 -0.035202
v 0.066265 -0.004810 -0.031791
v 0.066265 0.000152 -0.036611
v 0.066265 0.000152 -0.030382
v 0.071602 -0.004810 -0.031791
v 0.071602 -0.004810 -0.035202
v 0.071602 0.000152 -0.036611
v 0.071602 0.000152 -0.030382
v 0.071602 0.005114 -0.031791
v 0.071602 0.005114 -0.035202
v 0.029480 0.009806 -0.045609
v 0.035400 0.003698 -0.046990
v 0.015554 -0.003037 -0.048512
v 0.021474 -0.009144 -0.049892
v 0.036130 0.010595 -0.045609
v 0.043215 0.005889 -0.046990
v 0.025261 -0.004921 -0.048512
v 0.032346 -0.009626 -0.049892
v 0.046754 0.014404 -0.041885
v 0.055343 0.014516 -0.042575
v 0.046420 -0.003405 -0.048955
v 0.055008 -0.003293 -0.049645
v 0.004038 0.011915 -0.042390
v 0.012562 0.011536 -0.043590
v 0.002315 -0.006005 -0.048960
v 0.010839 -0.006385 -0.050160
vn 1.0000 -0.0000 -0.0000
vn -0.0000 -0.0000 1.0000
vn -0.0000 -1.0000 -0.0000
vn -0.0000 1.0000 -0.0000
vn -1.0000 -0.0000 -0.0000
vn -0.9568 -0.0000 -0.2909
vn 0.9587 -0.0000 0.2845
vn -0.3999 -0.9086 -0.1207
vn 0.4004 0.9085 0.1194
vn 0.1168 0.9411 0.3173
vn -0.0672 -0.9403 -0.3336
vn 0.3932 -0.0000 0.9194
vn -0.0800 -0.0000 -0.9968
vn 0.1168 -0.9411 0.3173
vn -0.0672 0.9403 -0.3336
vn -0.3999 0.9086 -0.1207
vn 0.4004 -0.9085 0.1194
vn -0.0000 0.2731 -0.9620
vn -0.0000 -0.2731 -0.9620
vn -0.0000 -0.2731 0.9620
vn -0.0000 0.2731 0.9620
vn -0.0000 0.2204 0.9754
vn -0.0470 0.2154 0.9754
vn -0.0791 0.3691 0.9260
vn -0.1152 0.3517 0.9290
vn -0.0000 -0.0000 -1.0000
vn -0.9568 -0.0000 0.2909
vn 0.9587 -0.0000 -0.2845
vn -0.3999 -0.9086 0.1207
vn 0.4004 0.9085 -0.1194
vn 0.1168 0.9411 -0.3173
vn -0.0672 -0.9403 0.3336
vn 0.3932 -0.0000 -0.9194
vn -0.0800 -0.0000 0.9968
vn 0.1168 -0.9411 -0.3173
vn -0.0672 0.9403 0.3336
vn -0.3999 0.9086 0.1207
vn 0.4004 -0.9085 -0.1194
vn -0.0000 0.2204 -0.9754
vn -0.0470 0.2154 -0.9754
vn -0.0791 0.3691 -0.9260
vn -0.1152 0.3517 -0.9290
vt 0.421644 0.625000
vt 0.585774 0.625000
vt 0.585774 0.779439
vt 0.421644 0.779439
vt 0.547169 1.000000
vt 0.461238 1.000000
vt 0.125000 0.625000
vt 0.125000 0.750000
vt 0.875000 0.625000
vt 0.875000 0.750000
vt 0.421644 0.470561
vt 0.585774 0.470561
vt 0.461238 0.000000
vt 0.547169 0.000000
vt 0.547169 0.125000
vt 0.461238 0.125000
s 0
usemtl Case_Base
f 15/1/1 16/2/1 4/3/1 3/4/1
f 3/4/2 4/3/2 2/5/2 1/6/2
f 13/7/3 15/1/3 3/4/3 1/8/3
f 16/2/4 14/9/4 2/10/4 4/3/4
f 1/13/5 2/14/5 14/15/5 13/16/5
f 15/1/1 57/4/1 58/3/1 16/2/1
f 57/4/26 55/6/26 56/5/26 58/3/26
f 13/7/3 55/8/3 57/4/3 15/1/3
f 16/2/4 58/3/4 56/10/4 14/9/4
f 55/13/5 13/16/5 14/15/5 56/14/5
usemtl Case_Handle
f 21/1/5 5/4/5 6/3/5 22/2/5
f 18/11/6 17/12/6 9/12/6 10/11/6
f 20/3/7 19/4/7 11/4/7 12/3/7
f 26/1/8 18/11/8 10/11/8 23/1/8
f 25/2/9 20/3/9 12/3/9 24/2/9
f 22/2/10 6/3/10 20/3/10 25/2/10
f 21/1/11 7/11/11 18/11/11 26/1/11
f 6/3/12 5/4/12 19/4/12 20/3/12
f 7/11/13 8/12/13 17/12/13 18/11/13
f 5/4/14 21/1/14 26/1/14 19/4/14
f 8/12/15 22/2/15 25/2/15 17/12/15
f 17/12/16 25/2/16 24/2/16 9/12/16
f 19/4/17 26/1/17 23/1/17 11/4/17
f 7/11/5 21/1/5 22/2/5 8/12/5
f 31/1/5 27/4/5 28/3/5 32/2/5
f 29/11/5 31/1/5 32/2/5 30/12/5
f 35/1/1 36/2/1 37/3/1 38/4/1
f 34/11/1 33/12/1 36/2/1 35/1/1
f 28/3/18 37/3/18 36/2/18 32/2/18
f 30/12/3 33/12/3 34/11/3 29/11/3
f 32/2/19 36/2/19 33/12/19 30/12/19
f 27/4/4 38/4/4 37/3/4 28/3/4
f 29/11/20 34/11/20 35/1/20 31/1/20
f 31/1/21 35/1/21 38/4/21 27/4/21
f 67/1/5 68/2/5 60/3/5 59/4/5
f 64/11/27 10/11/27 9/12/27 63/12/27
f 66/3/28 12/3/28 11/4/28 65/4/28
f 70/1/29 23/1/29 10/11/29 64/11/29
f 69/2/30 24/2/30 12/3/30 66/3/30
f 68/2/31 69/2/31 66/3/31 60/3/31
f 67/1/32 70/1/32 64/11/32 61/11/32
f 60/3/33 66/3/33 65/4/33 59/4/33
f 61/11/34 64/11/34 63/12/34 62/12/34
f 59/4/35 65/4/35 70/1/35 67/1/35
f 62/12/36 63/12/36 69/2/36 68/2/36
f 63/12/37 9/12/37 24/2/37 69/2/37
f 65/4/38 11/4/38 23/1/38 70/1/38
f 61/11/5 62/12/5 68/2/5 67/1/5
f 75/1/5 76/2/5 72/3/5 71/4/5
f 73/11/5 74/12/5 76/2/5 75/1/5
f 79/1/1 82/4/1 81/3/1 80/2/1
f 78/11/1 79/1/1 80/2/1 77/12/1
f 72/3/21 76/2/21 80/2/21 81/3/21
f 74/12/3 73/11/3 78/11/3 77/12/3
f 76/2/20 74/12/20 77/12/20 80/2/20
f 71/4/4 72/3/4 81/3/4 82/4/4
f 73/11/19 75/1/19 79/1/19 78/11/19
f 75/1/18 71/4/18 82/4/18 79/1/18
usemtl Case_Money
f 41/4/22 42/3/22 40/5/22 39/6/22
f 45/4/23 46/3/23 44/5/23 43/6/23
f 49/4/24 50/3/24 48/5/24 47/6/24
f 53/4/25 54/3/25 52/5/25 51/6/25
f 85/4/39 83/6/39 84/5/39 86/3/39
f 89/4/40 87/6/40 88/5/40 90/3/40
f 93/4/41 91/6/41 92/5/41 94/3/41
f 97/4/42 95/6/42 96/5/42 98/3/42
