# Blender 4.5.1 LTS
# www.blender.org
mtllib Rat_Tail5.mtl
o Rat_Tail.005
v 0.011593 -0.008318 -0.005882
v 0.008171 -0.008864 -0.006184
v -0.019628 -0.008171 -0.005151
v -0.019706 0.007045 -0.005151
v 0.008075 0.009329 -0.006184
v 0.011496 0.008979 -0.005882
v 0.008171 -0.008864 0.006176
v 0.011593 -0.008318 0.005871
v -0.019628 -0.008171 0.005170
v -0.019706 0.007045 0.005170
v 0.011496 0.008979 0.005871
v 0.008075 0.009329 0.006176
vn 0.1576 -0.9875 -0.0000
vn 0.1018 0.9948 -0.0000
vn 0.0888 0.0005 0.9960
vn 0.0879 0.0005 -0.9961
vn -0.0249 -0.9997 -0.0000
vn -0.0371 -0.0002 -0.9993
vn -0.0820 0.9966 -0.0000
vn -0.0362 -0.0002 0.9993
vt 0.000000 0.000000
s 0
usemtl Rat_pink
f 2/1/1 1/1/1 8/1/1 7/1/1
f 6/1/2 5/1/2 12/1/2 11/1/2
f 7/1/3 8/1/3 11/1/3 12/1/3
f 5/1/4 6/1/4 1/1/4 2/1/4
f 2/1/5 7/1/5 9/1/5 3/1/5
f 5/1/6 2/1/6 3/1/6 4/1/6
f 4/1/7 10/1/7 12/1/7 5/1/7
f 12/1/8 10/1/8 9/1/8 7/1/8
